<svg width="12" height="14" viewBox="0 0 12 14" fill="none" xmlns="http://www.w3.org/2000/svg">
<path d="M10.207 2.35156L8.89453 4.26562L7.66406 3.54102L7.37109 3.37695L7.18359 3.69141L5.90625 5.93359L4.72266 4.89453L4.5 4.70312L4.27734 4.89453L2.91797 6.08398L1.59375 5.70117L1.40625 6.54883L2.90625 6.98633L3.08203 7.04102L3.22266 6.91797L4.5 5.79688L5.77734 6.91797L6.09375 7.19141L6.31641 6.80859L7.62891 4.51172L8.83594 5.20898L9.10547 5.35938L10.793 2.89844L10.207 2.35156ZM7.52344 8.01172L7.20703 8.47656L5.92969 10.3359L4.72266 9.26953L4.5 9.07812L4.27734 9.26953L2.96484 10.418L1.66406 9.66602L1.33594 10.459L2.83594 11.334L3.03516 11.4434L3.22266 11.293L4.5 10.1719L5.77734 11.293L6.07031 11.5391L6.29297 11.2109L7.46484 9.50195L8.68359 11.6211L8.97656 12.1133L9.29297 11.6484L10.793 9.46094L10.207 8.91406L9.03516 10.623L7.81641 8.50391L7.52344 8.01172Z" fill="currentColor"/>
</svg>
